<svg xmlns="http://www.w3.org/2000/svg" width="16" height="14" viewBox="0 0 16 14" fill="none">
<path d="M1.33496 4.56631V9.88318C1.33496 10.6476 1.63862 11.3807 2.17913 11.9212C2.71964 12.4617 3.45273 12.7653 4.21712 12.7653H11.7828C12.5472 12.7653 13.2803 12.4617 13.8208 11.9212C14.3613 11.3807 14.665 10.6476 14.665 9.88318V5.7833C14.665 5.01891 14.3613 4.28582 13.8208 3.74531C13.2803 3.2048 12.5472 2.90114 11.7828 2.90114H7.99996M1.33496 4.56631V3.39543C1.33496 2.82213 1.5627 2.27232 1.96809 1.86693C2.37347 1.46155 2.92328 1.23381 3.49658 1.23381H5.58615C5.82272 1.23377 6.05699 1.28032 6.27557 1.37082C6.49415 1.46132 6.69276 1.59399 6.86007 1.76125L7.99996 2.90186L6.86295 4.03887C6.69564 4.20614 6.49703 4.3388 6.27845 4.4293C6.05987 4.5198 5.82561 4.56635 5.58903 4.56631H1.33496Z" stroke="#44475B" stroke-linejoin="round"/>
</svg>