<svg xmlns="http://www.w3.org/2000/svg" width="4" height="14" viewBox="0 0 4 14" fill="none">
<path d="M1.87012 2.57275C2.25844 2.57275 2.57324 2.25795 2.57324 1.86963C2.57324 1.4813 2.25844 1.1665 1.87012 1.1665C1.48179 1.1665 1.16699 1.4813 1.16699 1.86963C1.16699 2.25795 1.48179 2.57275 1.87012 2.57275Z" stroke="#44475B" stroke-width="1.6875" stroke-linecap="round" stroke-linejoin="round"/>
<path d="M1.87012 7.729C2.25844 7.729 2.57324 7.4142 2.57324 7.02588C2.57324 6.63755 2.25844 6.32275 1.87012 6.32275C1.48179 6.32275 1.16699 6.63755 1.16699 7.02588C1.16699 7.4142 1.48179 7.729 1.87012 7.729Z" stroke="#44475B" stroke-width="1.6875" stroke-linecap="round" stroke-linejoin="round"/>
<path d="M1.87012 12.8853C2.25844 12.8853 2.57324 12.5705 2.57324 12.1821C2.57324 11.7938 2.25844 11.479 1.87012 11.479C1.48179 11.479 1.16699 11.7938 1.16699 12.1821C1.16699 12.5705 1.48179 12.8853 1.87012 12.8853Z" stroke="#44475B" stroke-width="1.6875" stroke-linecap="round" stroke-linejoin="round"/>
</svg>