<svg xmlns="http://www.w3.org/2000/svg" width="13" height="16" viewBox="0 0 13 16" fill="none">
<path d="M12.3333 4.66667H10.3333C9.97971 4.66667 9.64057 4.52619 9.39052 4.27614C9.14048 4.0261 9 3.68696 9 3.33334V1.33334" stroke="#44475B" stroke-linecap="round" stroke-linejoin="round"/>
<path d="M5.00106 12C4.64744 12 4.3083 11.8595 4.05825 11.6095C3.8082 11.3594 3.66772 11.0203 3.66772 10.6667V2.66667C3.66772 2.31305 3.8082 1.97391 4.05825 1.72386C4.3083 1.47381 4.64744 1.33334 5.00106 1.33334H9.66772L12.3344 4V10.6667C12.3344 11.0203 12.1939 11.3594 11.9439 11.6095C11.6938 11.8595 11.3547 12 11.0011 12H5.00106Z" stroke="#44475B" stroke-linecap="round" stroke-linejoin="round"/>
<path d="M1 5.06667V13.6C1 13.8829 1.11238 14.1542 1.31242 14.3542C1.51246 14.5543 1.78377 14.6667 2.06667 14.6667H8.6" stroke="#44475B" stroke-linecap="round" stroke-linejoin="round"/>
</svg>