<svg xmlns="http://www.w3.org/2000/svg" width="12" height="14" viewBox="0 0 12 14" fill="none">
<path d="M5.313 1.262C5.49867 1.08646 5.74449 0.988655 6 0.988655C6.25551 0.988655 6.50133 1.08646 6.687 1.262L11.531 5.841C11.831 6.124 12 6.519 12 6.931V12.501C12 12.8988 11.842 13.2804 11.5607 13.5617C11.2794 13.843 10.8978 14.001 10.5 14.001H8.5C8.30293 14.001 8.1078 13.9622 7.92574 13.8867C7.74369 13.8113 7.57829 13.7007 7.43899 13.5613C7.29969 13.4219 7.18922 13.2564 7.11389 13.0743C7.03857 12.8922 6.99987 12.6971 7 12.5V10C7 9.86739 6.94732 9.74021 6.85355 9.64644C6.75979 9.55268 6.63261 9.5 6.5 9.5H5.5C5.36739 9.5 5.24021 9.55268 5.14645 9.64644C5.05268 9.74021 5 9.86739 5 10V12.5C5 12.8978 4.84196 13.2794 4.56066 13.5607C4.27936 13.842 3.89782 14 3.5 14H1.5C1.10218 14 0.720644 13.842 0.43934 13.5607C0.158035 13.2794 0 12.8978 0 12.5V6.93C0 6.518 0.17 6.123 0.47 5.84L5.313 1.262ZM6 1.988L1.156 6.568C1.10682 6.61462 1.06764 6.67075 1.04082 6.73298C1.014 6.79521 1.00012 6.86224 1 6.93V12.5C1 12.6326 1.05268 12.7598 1.14645 12.8536C1.24021 12.9473 1.36739 13 1.5 13H3.5C3.63261 13 3.75979 12.9473 3.85355 12.8536C3.94732 12.7598 4 12.6326 4 12.5V10C4 9.60217 4.15804 9.22064 4.43934 8.93934C4.72064 8.65803 5.10218 8.5 5.5 8.5H6.5C6.89782 8.5 7.27936 8.65803 7.56066 8.93934C7.84196 9.22064 8 9.60217 8 10V12.5C8 12.6326 8.05268 12.7598 8.14645 12.8536C8.24021 12.9473 8.36739 13 8.5 13H10.5C10.6326 13 10.7598 12.9473 10.8536 12.8536C10.9473 12.7598 11 12.6326 11 12.5V6.93C11 6.86207 10.9862 6.79485 10.9594 6.73244C10.9326 6.67002 10.8933 6.61373 10.844 6.567L6 1.988Z" fill="#3D4366"/>
</svg>