<svg xmlns="http://www.w3.org/2000/svg" width="16" height="10" viewBox="0 0 16 10" fill="none">
<path d="M4.81796 4.82043L11.1828 4.82043M9.65236 1.0689L11.1822 1.0689C12.177 1.06897 13.131 1.46421 13.8343 2.16765C14.5377 2.8711 14.9328 3.82514 14.9327 4.8199C14.9326 5.81465 14.5374 6.76864 13.8339 7.47198C13.1305 8.17533 12.1765 8.57043 11.1817 8.57036L9.65236 8.6059M6.34836 8.6059H4.85456C3.85384 8.5999 2.89582 8.19971 2.1882 7.49209C1.48057 6.78447 1.08038 5.82644 1.07439 4.82573C1.07141 4.33238 1.16638 3.84334 1.3538 3.38697C1.54122 2.9306 1.81737 2.51596 2.16623 2.16711C2.51509 1.81825 2.92972 1.5421 3.38609 1.35468C3.84247 1.16726 4.3315 1.07229 4.82485 1.07527L6.34836 1.0689" stroke="#44475B" stroke-linecap="round" stroke-linejoin="round"/>
</svg>