<svg xmlns="http://www.w3.org/2000/svg" width="16" height="16" viewBox="0 0 16 16" fill="none">
<g clip-path="url(#clip0_1682_425)">
<path d="M0.834961 4.38377V10.0995C0.834961 10.9212 1.1614 11.7093 1.74246 12.2904C2.32351 12.8714 3.1116 13.1979 3.93334 13.1979H7.06658M0.834961 4.38377V3.12505C0.834961 2.50875 1.07979 1.91768 1.51558 1.48189C1.95138 1.0461 2.54244 0.80127 3.15874 0.80127H5.40507C5.65939 0.801222 5.91123 0.851271 6.14621 0.948558C6.38118 1.04584 6.5947 1.18846 6.77455 1.36827L7.99996 2.59368M0.834961 4.38377H5.40817C5.66249 4.38382 5.91433 4.33377 6.14931 4.23648C6.38428 4.13919 6.5978 3.99657 6.77765 3.81677L7.99996 2.59368M15.165 8.0995V5.69206C15.165 4.87032 14.8385 4.08223 14.2575 3.50118C13.6764 2.92012 12.8883 2.59368 12.0666 2.59368H7.99996" stroke="#44475B" stroke-linecap="round" stroke-linejoin="round"/>
<path d="M9 12H12M12 12H15M12 12V9M12 12V15" stroke="#44475B" stroke-linecap="round" stroke-linejoin="round"/>
</g>
<defs>
<clipPath id="clip0_1682_425">
<rect width="16" height="16" fill="white"/>
</clipPath>
</defs>
</svg>