<svg xmlns="http://www.w3.org/2000/svg" width="12" height="13" viewBox="0 0 12 13" fill="none">
<path d="M5.05263 11.5526C5.05263 11.8039 5.15244 12.0449 5.33011 12.2225C5.50778 12.4002 5.74874 12.5 6 12.5C6.25126 12.5 6.49222 12.4002 6.66989 12.2225C6.84756 12.0449 6.94737 11.8039 6.94737 11.5526V7.44737H11.0526C11.3039 7.44737 11.5449 7.34756 11.7225 7.16989C11.9002 6.99222 12 6.75126 12 6.5C12 6.24874 11.9002 6.00778 11.7225 5.83011C11.5449 5.65244 11.3039 5.55263 11.0526 5.55263H6.94737V1.44737C6.94737 1.19611 6.84756 0.955144 6.66989 0.777478C6.49222 0.599812 6.25126 0.5 6 0.5C5.74874 0.5 5.50778 0.599812 5.33011 0.777478C5.15244 0.955144 5.05263 1.19611 5.05263 1.44737V5.55263H0.947368C0.696111 5.55263 0.455144 5.65244 0.277478 5.83011C0.0998118 6.00778 0 6.24874 0 6.5C0 6.75126 0.0998118 6.99222 0.277478 7.16989C0.455144 7.34756 0.696111 7.44737 0.947368 7.44737H5.05263V11.5526Z" fill="#3D4366"/>
</svg>