<svg xmlns="http://www.w3.org/2000/svg" width="14" height="12" viewBox="0 0 14 12" fill="none">
<path d="M7.83383 -0.000727731C7.03151 -0.0236403 6.23274 0.114607 5.48478 0.405835C4.73683 0.697063 4.05488 1.13536 3.4793 1.69478C2.90372 2.2542 2.44619 2.92339 2.13378 3.66275C1.82138 4.40211 1.66044 5.19662 1.6605 5.99927H0.467169C0.167169 5.99927 0.0205021 6.35927 0.233835 6.56594L2.09384 8.43261C2.22717 8.56594 2.43384 8.56594 2.56717 8.43261L4.42717 6.56594C4.6405 6.35927 4.48717 5.99927 4.19383 5.99927H2.99383C2.99383 3.39927 5.11383 1.29927 7.72717 1.33261C10.2072 1.36594 12.2938 3.45261 12.3272 5.93261C12.3605 8.53927 10.2605 10.6659 7.6605 10.6659C6.58717 10.6659 5.59383 10.2993 4.80717 9.67927C4.67948 9.57868 4.51927 9.52854 4.35701 9.53837C4.19476 9.5482 4.04178 9.61733 3.92717 9.73261C3.64717 10.0193 3.66717 10.4859 3.9805 10.7326C5.03062 11.5552 6.32657 12.0013 7.6605 11.9993C11.0272 11.9993 13.7538 9.21927 13.6605 5.82594C13.5738 2.69927 10.9605 0.0859389 7.83383 -0.000727731ZM7.49383 3.33261C7.2205 3.33261 6.99383 3.55927 6.99383 3.83261V6.28594C6.99383 6.51927 7.1205 6.73927 7.3205 6.85927L9.4005 8.09261C9.6405 8.23261 9.94717 8.15261 10.0872 7.91927C10.2272 7.67927 10.1472 7.37261 9.91383 7.23261L7.99383 6.09261V3.82594C7.99383 3.55927 7.77383 3.33261 7.49383 3.33261Z" fill="#44475B"/>
</svg>