<svg xmlns="http://www.w3.org/2000/svg" width="14" height="14" viewBox="0 0 14 14" fill="none">
<path d="M7.56945 1.33355C7.51275 1.23239 7.43011 1.14815 7.33004 1.08953C7.22997 1.0309 7.11609 1 7.00012 1C6.88414 1 6.77026 1.0309 6.67019 1.08953C6.57013 1.14815 6.48749 1.23239 6.43078 1.33355C6.29745 1.57622 6.16923 1.822 6.04612 2.07089C5.65825 2.85819 5.32848 3.67281 5.05945 4.50822C4.96678 4.79555 4.69212 4.99489 4.37745 5.00355C3.4236 5.02863 2.47285 5.12333 1.53278 5.28689C1.01678 5.37755 0.822784 5.96555 1.18945 6.32422C1.27301 6.40644 1.35745 6.48755 1.44278 6.56755C2.08082 7.17012 2.75544 7.73275 3.46278 8.25222C3.70745 8.43155 3.80812 8.73889 3.71478 9.02022C3.35924 10.0889 3.1048 11.1886 2.95478 12.3049C2.88812 12.8082 3.42678 13.1636 3.89478 12.9236C4.82281 12.4477 5.71023 11.8965 6.54812 11.2756C6.67936 11.1798 6.83764 11.1281 7.00012 11.1281C7.1626 11.1281 7.32088 11.1798 7.45212 11.2756C8.28983 11.8968 9.17728 12.448 10.1055 12.9236C10.5728 13.1636 11.1121 12.8082 11.0455 12.3049C11.0197 12.116 10.9914 11.9282 10.9608 11.7416C10.8068 10.8183 10.581 9.90839 10.2854 9.02022C10.1921 8.73889 10.2921 8.43155 10.5374 8.25222C11.3399 7.66421 12.0996 7.01992 12.8108 6.32422C13.1774 5.96555 12.9841 5.37755 12.4674 5.28689C11.5275 5.12237 10.5767 5.02767 9.62278 5.00355C9.47196 5.00115 9.32555 4.9523 9.20351 4.86366C9.08146 4.77502 8.98972 4.6509 8.94078 4.50822C8.58658 3.40867 8.12735 2.3451 7.56945 1.33355Z" stroke="#44475B" stroke-linecap="round" stroke-linejoin="round"/>
</svg>